<?xml version="1.0" encoding="iso-8859-1"?>
<!-- Uploaded to: SVG Repo, www.svgrepo.com, Generator: SVG Repo Mixer Tools -->
<svg fill="currentColor" version="1.1" id="Layer_1" xmlns="http://www.w3.org/2000/svg" xmlns:xlink="http://www.w3.org/1999/xlink" 
	 viewBox="0 0 512 512" xml:space="preserve">
<g>
	<g>
		<g>
			<path d="M261.199,488.514l-6.996-41.977c2.367-0.427,4.538-1.65,6.117-3.514c1.985-2.344,2.84-5.442,2.334-8.472l-8.451-50.708
				c2.367-0.427,4.538-1.65,6.117-3.514c1.985-2.344,2.84-5.442,2.334-8.472l-8.451-50.708c2.367-0.427,4.538-1.65,6.117-3.514
				c1.985-2.344,2.84-5.442,2.334-8.472l-8.451-50.708c2.367-0.427,4.538-1.65,6.117-3.514c1.985-2.344,2.84-5.442,2.334-8.471
				l-7.187-43.123l165.916,29.01c0.601,0.106,1.203,0.156,1.801,0.156c3.149,0,6.17-1.425,8.172-3.939
				c2.381-2.99,2.939-7.044,1.456-10.567c-18.011-42.75-55.969-73.05-101.562-81.055c-0.002,0-0.004,0-0.005-0.001l77.515-41.19
				c3.378-1.796,5.507-5.293,5.545-9.121c0.04-3.825-2.016-7.367-5.356-9.232c-20.217-11.282-42.481-17.072-65.037-17.188
				l40.416-32.866c2.971-2.417,4.381-6.264,3.678-10.029c-0.704-3.765-3.411-6.842-7.054-8.021
				C336.728-5,288.96,3.85,253.204,32.962c-16.063,13.002-28.815,29.595-37.424,48.345c-8.604-18.749-21.345-35.337-37.386-48.328
				C142.594,3.852,94.825-5.001,50.6,9.307c-3.643,1.179-6.35,4.256-7.054,8.021c-0.705,3.764,0.706,7.611,3.678,10.028
				l40.723,33.12C64.9,60.444,41.957,66.21,21.668,77.521c-3.343,1.863-5.399,5.404-5.36,9.232c0.038,3.826,2.165,7.326,5.544,9.121
				l79.011,41.99c-43.49,9.193-79.495,38.859-96.899,80.142c-1.485,3.523-0.928,7.577,1.455,10.567
				c2.002,2.515,5.024,3.94,8.173,3.94c0.597,0,1.201-0.051,1.8-0.156l160.578-28.069l-7.07,42.171
				c-0.508,3.03,0.344,6.131,2.329,8.477c1.579,1.866,3.751,3.091,6.119,3.518l-8.451,50.708c-0.505,3.03,0.349,6.127,2.334,8.472
				c1.579,1.864,3.75,3.087,6.117,3.514l-8.451,50.708c-0.505,3.03,0.349,6.127,2.334,8.472c1.579,1.864,3.75,3.087,6.117,3.514
				l-8.451,50.708c-0.505,3.03,0.349,6.127,2.334,8.472c1.579,1.864,3.75,3.087,6.117,3.514l-6.996,41.977H0v20.898h512v-20.898
				H261.199V488.514z M380.125,87.312l-94.641,50.29l-0.004,0.003l-53.502,28.456c1.999-7.453,4.771-14.705,8.295-21.698
				l73.047-59.269C335.647,79.112,358.728,79.933,380.125,87.312z M266.373,49.188c24.948-20.313,56.807-28.957,88.212-24.581
				l-52.708,42.862l-74.034,60.069c-0.32-3.86-0.812-7.733-1.447-11.612C231.67,89.487,245.797,65.841,266.373,49.188z
				 M76.965,24.606c31.408-4.375,63.277,4.275,88.255,24.599c20.542,16.634,34.662,40.281,39.935,66.724
				c-0.629,3.864-1.118,7.722-1.437,11.56L130.417,68.08L76.965,24.606z M50.569,87.469c21.887-7.421,45.872-8.133,68.369-1.794
				l70.469,57.114c3.827,7.434,6.846,15.23,9.031,23.303l-55.488-29.528l-0.004-0.002L50.569,87.469z M179.674,182.427
				L32.743,208.11c17.189-26.574,44.595-44.987,76.334-50.56c8.592-1.459,17.351-1.941,26.073-1.462l45.453,24.187
				C180.217,180.945,179.907,181.667,179.674,182.427z M191.539,488.514l6.966-41.796h34.541l6.966,41.796H191.539z M191.539,425.82
				l6.966-41.796h34.541l6.966,41.796H191.539z M191.539,363.126l6.966-41.796h34.541l6.966,41.796H191.539z M191.539,300.432
				l6.966-41.796h34.541l6.966,41.796H191.539z M191.551,237.737l6.247-37.276l20.591-3.624l15.254,2.684l6.37,38.215H191.551z
				 M250.651,179.803l42.937-22.837c11.74-1.487,23.204-1.305,34.074,0.577c31.784,5.579,59.192,23.994,76.376,50.568
				L251.52,181.443C251.278,180.867,250.987,180.319,250.651,179.803z"/>
			<rect x="0" y="363.124" width="151.51" height="20.898"/>
			<path d="M381.388,279.534c-48.322,0-88.243,36.638-93.457,83.592h-16.258v20.898h26.122H464.98H512v-20.898h-37.156
				C469.63,316.172,429.71,279.534,381.388,279.534z M308.989,363.126c5.086-35.399,35.615-62.694,72.399-62.694
				s67.313,27.295,72.399,62.694H308.989z"/>
			<rect x="370.939" y="237.736" width="20.898" height="31.347"/>
			
				<rect x="446.694" y="253.219" transform="matrix(0.7071 0.7071 -0.7071 0.7071 326.0052 -243.6727)" width="20.898" height="36.937"/>
			
				<rect x="295.177" y="253.22" transform="matrix(-0.7071 0.7071 -0.7071 -0.7071 713.8479 247.6912)" width="20.898" height="36.937"/>
			<rect x="480.653" y="316.103" width="31.347" height="20.898"/>
			<rect x="303.02" y="404.92" width="62.694" height="20.898"/>
			<rect x="354.22" y="446.716" width="57.469" height="20.898"/>
			<rect x="105.535" y="404.92" width="51.2" height="20.898"/>
			<rect x="94.041" y="451.94" width="52.245" height="20.898"/>
			<rect x="437.812" y="409.099" width="74.188" height="20.898"/>
			<rect x="0" y="419.548" width="72.098" height="20.898"/>
		</g>
	</g>
</g>
</svg>