<?xml version="1.0" encoding="iso-8859-1"?>
<!-- Uploaded to: SVG Repo, www.svgrepo.com, Generator: SVG Repo Mixer Tools -->
<svg fill="#000000" version="1.1" id="Layer_1" xmlns="http://www.w3.org/2000/svg" xmlns:xlink="http://www.w3.org/1999/xlink" 
	 viewBox="0 0 512 512" xml:space="preserve">
<g>
	<g>
		<path d="M370.939,0H141.061c-15.844,0-28.735,12.89-28.735,28.735v457.404h287.347V28.735C399.673,12.89,386.783,0,370.939,0z
			 M384,470.465H128v-9.143h256V470.465z M384,445.649H128V297.796h256V445.649z M384,282.122H128v-8.882h256V282.122z M384,257.567
			H128V28.735c0-7.202,5.859-13.061,13.061-13.061h229.878c7.202,0,13.061,5.859,13.061,13.061V257.567z"/>
	</g>
</g>
<g>
	<g>
		<rect x="339.592" y="496.327" width="52.245" height="15.673"/>
	</g>
</g>
<g>
	<g>
		<rect x="120.163" y="496.327" width="52.245" height="15.673"/>
	</g>
</g>
<g>
	<g>
		<rect x="147.853" y="50.155" width="15.673" height="133.747"/>
	</g>
</g>
<g>
	<g>
		<rect x="147.853" y="332.278" width="15.673" height="52.245"/>
	</g>
</g>
<g>
	<g>
		<path d="M241.894,63.216v150.465h122.253V63.216H241.894z M266.449,198.008h-8.882V78.89h8.882V198.008z M348.473,198.008h-66.351
			V78.89h66.351V198.008z"/>
	</g>
</g>
</svg>