<?xml version="1.0" encoding="iso-8859-1"?>
<!-- Uploaded to: SVG Repo, www.svgrepo.com, Generator: SVG Repo Mixer Tools -->
<svg fill="#000000" height="800px" width="800px" version="1.1" id="Layer_1" xmlns="http://www.w3.org/2000/svg" xmlns:xlink="http://www.w3.org/1999/xlink" 
	 viewBox="0 0 512 512" xml:space="preserve">
<g>
	<g>
		<g>
			<path d="M309.333,213.333h-25.003c-5.888,0-10.667,4.779-10.667,10.667s4.779,10.667,10.667,10.667h14.336v14.336
				c0,5.888,4.779,10.667,10.667,10.667S320,254.891,320,249.003V224C320,218.112,315.221,213.333,309.333,213.333z"/>
			<path d="M437.333,213.333c-5.888,0-10.667,4.779-10.667,10.667v64c0,5.888,4.779,10.667,10.667,10.667
				c5.888,0,10.667-4.779,10.667-10.667v-64C448,218.112,443.221,213.333,437.333,213.333z"/>
			<path d="M326.613,142.165C322.219,137.067,320,134.528,320,128c0-6.421,2.176-8.896,6.485-13.781
				c6.293-7.125,14.848-16.896,14.848-39.552c0-5.888-4.779-10.667-10.667-10.667S320,68.779,320,74.667
				c0,14.613-4.203,19.392-9.536,25.451c-5.248,5.973-11.797,13.419-11.797,27.883s6.549,22.037,11.819,28.117
				c5.333,6.144,9.515,11.008,9.515,25.216c0,5.888,4.779,10.667,10.667,10.667s10.667-4.779,10.667-10.667
				C341.333,159.168,332.843,149.355,326.613,142.165z"/>
			<path d="M256,0C187.605,0,123.328,26.624,74.987,74.987c-0.043,0.021-0.043,0.064-0.064,0.085C26.603,123.413,0,187.648,0,256
				c0,141.163,114.837,256,256,256c68.395,0,132.672-26.624,181.035-74.965c0.085-0.085,0.107-0.171,0.171-0.256
				C485.44,388.459,512,324.288,512,256C512,114.837,397.163,0,256,0z M256,490.667c-129.387,0-234.667-105.28-234.667-234.667
				c0-59.115,21.717-114.88,61.355-158.208l115.563,115.541H53.333c-5.888,0-10.667,4.779-10.667,10.667v64
				c0,5.888,4.779,10.667,10.667,10.667h230.229l130.645,130.645C370.901,468.949,315.115,490.667,256,490.667z M219.584,234.667
				l42.667,42.667H128v-42.667H219.584z M106.667,234.667v42.667H64v-42.667H106.667z M429.333,414.229L295.595,280.491
				c-0.021-0.021,0-0.021-0.021-0.043l-64-64c-0.021-0.021-0.043-0.021-0.064-0.043L97.771,82.688
				C141.12,43.051,196.885,21.333,256,21.333c129.387,0,234.667,105.28,234.667,234.667
				C490.688,315.115,468.971,370.901,429.333,414.229z"/>
			<path d="M394.667,213.333c-5.888,0-10.667,4.779-10.667,10.667v64c0,5.888,4.779,10.667,10.667,10.667
				s10.667-4.779,10.667-10.667v-64C405.333,218.112,400.555,213.333,394.667,213.333z"/>
			<path d="M352,213.333c-5.888,0-10.667,4.779-10.667,10.667v64c0,5.888,4.779,10.667,10.667,10.667
				c5.888,0,10.667-4.779,10.667-10.667v-64C362.667,218.112,357.888,213.333,352,213.333z"/>
		</g>
	</g>
</g>
</svg>