<?xml version="1.0" encoding="iso-8859-1"?>
<!-- Uploaded to: SVG Repo, www.svgrepo.com, Generator: SVG Repo Mixer Tools -->
<svg fill="currentColor" version="1.1" id="Layer_1" xmlns="http://www.w3.org/2000/svg" xmlns:xlink="http://www.w3.org/1999/xlink" 
	 viewBox="0 0 504.291 504.291" xml:space="preserve">
<g>
	<g>
		<g>
			<path d="M442.207,320.936l-111.733-94.074l-5.179-62.254l116.946-99.454c1.779-1.511,2.854-3.71,2.946-6.052
				c0.092-2.342-0.797-4.616-2.451-6.27L392.375,2.472c-1.67-1.679-3.995-2.602-6.312-2.451c-2.359,0.101-4.558,1.192-6.069,3.005
				l-81.903,98.228c-12.876-10.626-29.142-16.636-45.946-16.636c-16.779,0-32.567,5.724-45.392,16.174l-82.482-97.8
				c-1.519-1.796-3.718-2.879-6.06-2.971c-2.35-0.176-4.633,0.772-6.295,2.451L61.556,52.832c-1.662,1.662-2.552,3.937-2.451,6.295
				c0.101,2.342,1.183,4.541,2.98,6.052l116.996,98.539l-5.347,64.117L62.11,320.911c-1.805,1.511-2.896,3.701-3.005,6.068
				c-0.109,2.35,0.781,4.642,2.451,6.312l50.361,50.361c1.578,1.578,3.71,2.459,5.934,2.459c0.109,0,0.227,0,0.344-0.008
				c2.333-0.092,4.532-1.167,6.052-2.954l40.515-47.633L151.45,495.2c-0.185,2.333,0.604,4.65,2.191,6.371
				c1.595,1.729,3.827,2.719,6.178,2.719h58.754V428.75c0-4.642,3.76-8.393,8.393-8.393h50.361c4.633,0,8.393,3.752,8.393,8.393
				v75.541h58.754c2.35,0,4.583-0.99,6.178-2.719c1.586-1.721,2.384-4.037,2.191-6.371l-13.362-160.29l40.532,48.203
				c1.519,1.805,3.718,2.887,6.068,2.988c2.375,0.193,4.633-0.781,6.295-2.451l50.361-50.361c1.662-1.67,2.552-3.945,2.451-6.295
				C445.086,324.646,444.003,322.447,442.207,320.936z M294.113,378.389c0,4.633-3.76,8.393-8.393,8.393h-67.148
				c-4.633,0-8.393-3.76-8.393-8.393v-50.361c0-4.642,3.76-8.393,8.393-8.393h67.148c4.633,0,8.393,3.752,8.393,8.393V378.389z
				 M386.978,365.312L259.339,213.508c-1.586-1.897-3.928-2.98-6.396-2.988h-0.025c-2.459,0-4.801,1.083-6.396,2.954
				L117.347,365.345l-37.426-37.426l107.251-89.44h0.008l45.929-38.308c1.351-1.125,2.115-2.686,2.552-4.348
				c0.185-0.688,0.47-1.343,0.47-2.065v-0.008c0-2.476-1.091-4.843-2.988-6.438L79.896,58.229l37.435-37.435l82.197,97.473
				l46.97,55.69c1.603,1.897,3.945,2.988,6.421,2.988h0.025c2.476-0.008,4.826-1.116,6.421-3.022l45.971-55.137
				c0.008,0,0.008-0.008,0.008-0.008l81.66-97.943l37.426,37.426l-151.77,129.074c-1.88,1.595-2.963,3.945-2.955,6.413
				c0,0.722,0.277,1.376,0.462,2.056c0.428,1.662,1.184,3.215,2.526,4.339l44.301,37.309l107.403,90.431L386.978,365.312z
				 M191.831,212.736l2.988-35.748l19.851,16.711L191.831,212.736z M312.36,211.603l-3.576-3.005L291.091,193.7l18.466-15.704
				L312.36,211.603z"/>
			<rect x="226.966" y="336.417" width="50.361" height="33.574"/>
			<rect x="235.359" y="437.138" width="33.574" height="67.148"/>
		</g>
	</g>
</g>
</svg>